<?xml version="1.0" encoding="UTF-8" standalone="no"?>
<!-- Generator: Adobe Illustrator 15.1.0, SVG Export Plug-In . SVG Version: 6.00 Build 0)  -->

<svg
   xmlns:dc="http://purl.org/dc/elements/1.1/"
   xmlns:cc="http://creativecommons.org/ns#"
   xmlns:rdf="http://www.w3.org/1999/02/22-rdf-syntax-ns#"
   xmlns:svg="http://www.w3.org/2000/svg"
   xmlns="http://www.w3.org/2000/svg"
   xmlns:sodipodi="http://sodipodi.sourceforge.net/DTD/sodipodi-0.dtd"
   xmlns:inkscape="http://www.inkscape.org/namespaces/inkscape"
   version="1.1"
   id="Livello_1"
   x="0px"
   y="0px"
   width="350.89001"
   height="179"
   viewBox="0 0 350.89 178.99999"
   enable-background="new 0 0 841.89 595.28"
   xml:space="preserve"
   inkscape:version="0.48.4 r9939"
   sodipodi:docname="logo.svg"><metadata
     id="metadata3115"><rdf:RDF><cc:Work
         rdf:about=""><dc:format>image/svg+xml</dc:format><dc:type
           rdf:resource="http://purl.org/dc/dcmitype/StillImage" /></cc:Work></rdf:RDF></metadata><defs
     id="defs3113" /><sodipodi:namedview
     pagecolor="#ffffff"
     bordercolor="#666666"
     borderopacity="1"
     objecttolerance="10"
     gridtolerance="10"
     guidetolerance="10"
     inkscape:pageopacity="0"
     inkscape:pageshadow="2"
     inkscape:window-width="1440"
     inkscape:window-height="834"
     id="namedview3111"
     showgrid="false"
     inkscape:zoom="0.99616982"
     inkscape:cx="420.94501"
     inkscape:cy="297.64001"
     inkscape:window-x="0"
     inkscape:window-y="27"
     inkscape:window-maximized="1"
     inkscape:current-layer="Livello_1" /><polygon
     points="249.334,244.667 291.001,216.333 291.001,292.333 250.001,309 "
     id="polygon3071"
     style="fill:#96cae6"
     transform="translate(-243.93431,-207.48029)" /><polygon
     points="250.334,317.666 292.001,303.334 290.667,381 248.667,381.666 "
     id="polygon3073"
     style="fill:#96cae6"
     transform="translate(-243.93431,-207.48029)" /><polygon
     points="299.334,303 424.001,314.666 424.001,382 298.334,381 "
     id="polygon3075"
     style="fill:#50a9ce"
     transform="translate(-243.93431,-207.48029)" /><g
     id="g3077"
     transform="translate(-243.93431,-207.48029)"><path
       d="m 288.019,308.487 v 69.13 l -36.589,1.08 v -58.481 l 36.589,-11.729 m 6.034,-9.128 -46.748,16.365 v 68.907 h 46.748 v -85.272 l 0,0 z m -36.115,22.258 -2.317,0.703 v 52.814 l 2.317,-0.107 v -53.41 z m 5.534,-1.681 -2.441,0.741 v 54.208 l 2.441,-0.113 v -54.836 z m 5.837,-1.774 -2.576,0.783 v 55.676 l 2.576,-0.12 v -56.339 z m 6.166,-1.872 -2.723,0.827 v 57.225 l 2.723,-0.127 V 316.29 z m 6.523,-1.981 -2.882,0.875 v 58.863 l 2.882,-0.133 v -59.605 z"
       id="path3079"
       inkscape:connector-curvature="0"
       style="fill:#4c5356" /><path
       d="m 288.019,221.561 v 69.13 l -36.589,14.47 v -58.482 l 36.589,-25.118 m 6.034,-11.336 -46.748,33.472 v 68.906 l 46.748,-17.106 v -85.272 l 0,0 z m -36.115,35.472 -2.317,1.552 v 52.815 l 2.317,-0.955 v -53.412 z m 5.534,-3.706 -2.441,1.636 v 54.208 l 2.441,-1.007 v -54.837 z m 5.837,-3.908 -2.576,1.726 v 55.675 l 2.576,-1.062 v -56.339 z m 6.166,-4.129 -2.723,1.823 v 57.225 l 2.723,-1.123 v -57.925 z m 6.523,-4.369 -2.882,1.93 v 58.863 l 2.882,-1.188 v -59.605 z"
       id="path3081"
       inkscape:connector-curvature="0"
       style="fill:#4c5356" /></g><g
     id="g3083"
     transform="translate(-243.93431,-207.48029)"><path
       d="m 294.053,210.225 36.742,6.509 c 1.23,0.218 5.454,0.62 8.762,3.856 3.394,3.463 3.83,7.784 4.049,11.948 v 54.026 c 0,0.459 -0.109,2.971 -0.655,4.866 -0.982,3.924 -4.163,6.618 -7.81,7.324 -0.998,0.141 -2.223,0.146 -4.568,0.05 l -36.52,-3.307 v -85.272 z m 25.531,68.995 c 3.198,-0.469 3.653,-1.123 3.993,-4.482 V 238.77 c -0.454,-3.351 -0.909,-4.009 -3.993,-5.081 l -4.028,-0.634 v 45.722 l 4.028,0.443 z"
       id="path3085"
       inkscape:connector-curvature="0"
       style="fill:#2a363b" /><path
       d="m 349.539,249.575 c 0.215,-12.618 0.966,-18.874 4.92,-23.205 3.815,-4.202 8.854,-4.548 19.479,-2.658 2.138,0.38 4.264,0.758 6.38,1.245 7.577,2.003 10.925,5.317 12.98,8.824 3.211,5.417 3.792,11.244 3.986,22.844 v 20.218 c -0.194,7.33 -0.194,17.062 -4.963,22.66 -0.687,0.805 -1.57,1.483 -2.455,1.945 -2.863,1.811 -7.242,2.729 -14.706,2.059 -8.21,-0.736 -13.417,-2.33 -16.781,-4.667 -1.057,-0.777 -2.964,-2.316 -4.667,-5.201 -3.208,-5.326 -3.852,-10.975 -4.174,-22.636 v -21.428 z m 28.663,-3.676 c -0.102,-1.34 -0.202,-1.688 -0.404,-2.383 -0.405,-0.948 -1.315,-2.53 -3.655,-2.902 -2.452,-0.391 -3.376,0.909 -3.685,1.864 -0.205,0.414 -0.309,1.177 -0.41,2.387 v 36.224 c 0,1.003 0.102,1.794 0.102,2.128 0.309,1.149 1.438,3.055 4.096,3.343 2.438,0.265 3.451,-1.395 3.755,-2.355 0.101,-0.431 0.202,-1.082 0.202,-2.187 v -36.119 z"
       id="path3087"
       inkscape:connector-curvature="0"
       style="fill:#2a363b" /><path
       d="m 413.419,306.305 c -0.374,-0.033 -2.619,-0.344 -4.217,-1.021 -2.93,-1.338 -5.402,-4.356 -6.165,-7.974 -0.479,-1.767 -0.479,-4.238 -0.479,-4.668 v -51.155 c 0,-0.215 0,-2.688 0.383,-4.127 0.763,-3.628 3.331,-6.074 6.73,-6.33 1.128,-0.12 1.69,-0.021 3.747,0.344 l 16.828,2.981 v 17.588 l -6.962,-1.089 c -2.377,0.154 -2.652,0.532 -2.836,3.241 v 31.476 c 0.275,2.769 0.643,3.23 3.109,3.82 l 6.688,0.745 v 17.693 l -16.826,-1.524 z"
       id="path3089"
       inkscape:connector-curvature="0"
       style="fill:#2a363b" /><path
       d="m 459.267,310.457 c -1.09,-2.312 -1.425,-3.553 -1.51,-8.093 v -12.688 c -0.335,-5.982 -1.935,-7.086 -6.686,-7.676 v 27.714 l -16.269,-1.473 V 235.16 l 16.269,2.882 0.086,26.915 c 1.532,0.222 3.905,0.767 5.255,-0.35 1.597,-1.377 1.345,-4.233 1.345,-4.737 v -13.393 c 0.252,-4.085 0.672,-5.32 1.51,-6.983 l 15.589,2.762 c -1.29,2.932 -1.531,6.15 -1.531,13.065 0,1.976 0.08,3.866 0.08,5.841 0.08,1.593 0.08,3.173 0.08,4.752 -0.16,4.521 -1.213,6.844 -2.43,8.063 -1.384,1.497 -3.673,2.283 -7.794,2.433 3.3,1.136 7.956,2.838 9.335,7.468 1.051,3.489 0.485,7.273 0.485,14.488 0,7.016 0.727,10.246 1.855,13.508 l -15.669,-1.417 z"
       id="path3091"
       inkscape:connector-curvature="0"
       style="fill:#2a363b" /><path
       d="m 487.347,312.999 c -2.504,-0.519 -3.998,-0.947 -5.894,-3.271 -3.1,-3.728 -3.02,-6.86 -3.18,-9.036 v -46.637 c 0.08,-3.226 0.239,-5.064 1.99,-7.215 2.138,-2.561 4.029,-2.715 7.005,-2.383 l 20.224,3.583 v 14.851 l -14.261,-2.252 v 10.599 l 14.261,2.059 v 15.135 l -14.261,-1.779 v 11.657 l 14.261,1.567 v 14.946 l -20.145,-1.824 z"
       id="path3093"
       inkscape:connector-curvature="0"
       style="fill:#2a363b" /><path
       d="m 530.955,316.947 c -1.116,-1.662 -1.326,-3.428 -1.466,-7.301 V 297.7 c 0,-0.458 0.07,-1.002 -0.069,-2.03 -0.42,-3.544 -2.667,-3.453 -3.442,-3.548 l -1.627,-0.2 v 19.987 c 0,1.109 0,2.22 0.567,4.491 l -14.353,-1.299 v -66.518 l 24.27,4.3 c 2.199,0.571 3.84,1.134 5.542,3.336 2.301,3.018 2.638,6.595 2.772,10.498 v 8.39 c 0,0.722 -0.067,1.343 -0.067,1.975 -0.135,1.154 -0.404,3.643 -2.027,5.584 -1.902,2.095 -4.158,2.063 -6.564,2.013 1.033,0.23 6.903,1.018 8.592,7.741 0.404,1.493 0.472,2.223 0.472,4.928 v 12.444 c 0.067,2.982 0.135,6.055 1.813,8.459 l -14.413,-1.304 z m -5.048,-39.145 c 0.705,0.008 1.269,0.088 1.971,-0.089 1.611,-0.597 1.961,-2.476 1.961,-6.609 0,-5.145 -2.312,-5.511 -4.003,-5.779 l -1.485,-0.235 v 12.491 l 1.556,0.221 z"
       id="path3095"
       inkscape:connector-curvature="0"
       style="fill:#2a363b" /><g
       id="g3097"><path
         d="m 431.851,368.012 16.039,0.314 V 357.83 l -5.54,-0.179 c 0,0 -5.261,0.347 -7.827,-1.806 -2.672,-2.377 -2.672,-7.362 -2.672,-10.582 v -21.814 c 0,-0.311 0,-3.428 0.447,-5.366 1.78,-7.526 8.481,-6.116 9.965,-5.886 l 21.648,1.875 v 15.691 l -15.248,-1.027 v 10.996 l 5.541,0.301 c 0.676,0.036 4.044,-0.285 6.636,1.863 2.822,2.348 3.071,6.557 3.071,10.154 v 20.788 c -0.083,1.698 -0.166,3.396 -0.58,5.092 -1.909,6.701 -7.69,6.601 -9.212,6.701 H 431.85 v -16.619 z"
         id="path3099"
         inkscape:connector-curvature="0"
         style="fill:#2a363b" /><path
         d="M 489.526,384.632 V 358.11 l -6.49,-0.219 v 26.741 h -15.271 v -70.226 l 15.271,1.323 v 26.059 l 6.49,0.35 v -25.846 l 14.396,1.247 v 67.093 h -14.396 z"
         id="path3101"
         inkscape:connector-curvature="0"
         style="fill:#2a363b" /><path
         d="m 515.836,384.632 c -2.326,-0.282 -3.714,-0.564 -5.476,-2.639 -2.878,-3.321 -2.804,-6.347 -2.952,-8.43 v -44.937 c 0.074,-3.117 0.223,-4.903 1.848,-7.134 1.986,-2.661 3.742,-2.98 6.508,-2.929 l 18.811,1.629 v 14.33 l -13.268,-0.894 v 10.22 l 13.268,0.715 v 14.604 l -13.268,-0.455 v 11.24 l 13.268,0.258 v 14.421 h -18.739 z"
         id="path3103"
         inkscape:connector-curvature="0"
         style="fill:#2a363b" /><path
         d="m 539.341,384.632 v -47.339 c -0.067,-5.809 -0.136,-10.983 -1.159,-16.787 l 14.727,1.276 c -0.984,4.016 -1.115,7.927 -1.182,16.482 v 31.476 c 4.709,0.097 12.129,-0.102 14.413,-1.364 l -1.775,16.256 h -25.024 z"
         id="path3105"
         inkscape:connector-curvature="0"
         style="fill:#2a363b" /><path
         d="m 569.526,384.632 v -45.405 c -0.062,-5.572 -0.125,-10.535 -1.066,-16.098 l 13.559,1.175 c -0.907,3.857 -1.028,7.612 -1.09,15.824 v 30.211 c 4.34,0.089 11.182,-0.108 13.289,-1.322 l -1.638,15.615 h -23.054 z"
         id="path3107"
         inkscape:connector-curvature="0"
         style="fill:#2a363b" /></g><path
       d="m 420.732,316.601 v 61.764 L 301.194,377.491 V 307.12 l 119.538,9.481 m 5.427,-5.798 -132.106,-11.443 v 85.272 h 132.106 v -73.829 l 0,0 z m -114.669,1.154 -3.638,-0.273 v 61.83 l 3.638,0.042 v -61.599 z m 8.263,0.621 -3.575,-0.269 v 61.3 l 3.575,0.041 v -61.072 z m 8.123,0.611 -3.515,-0.265 v 60.778 l 3.515,0.04 v -60.553 z m 7.987,0.6 -3.456,-0.26 v 60.266 l 3.456,0.039 v -60.045 z m 7.854,0.59 -3.398,-0.255 v 59.762 l 3.398,0.039 v -59.546 z m 0,0 -3.398,-0.255 v 59.762 l 3.398,0.039 v -59.546 z m 7.723,0.581 -3.343,-0.251 v 59.266 l 3.343,0.039 V 314.96 z m 7.597,0.571 -3.287,-0.248 v 58.779 l 3.287,0.037 v -58.568 z m 7.474,0.562 -3.234,-0.243 v 58.299 l 3.234,0.037 v -58.093 z m 7.353,0.552 -3.183,-0.238 v 57.827 l 3.183,0.036 v -57.625 z m 0,0 -3.183,-0.238 v 57.827 l 3.183,0.036 v -57.625 z m 7.236,0.544 -3.132,-0.236 v 57.363 l 3.132,0.036 v -57.163 z m 7.121,0.536 -3.082,-0.232 v 56.906 l 3.082,0.036 v -56.71 z m 7.008,0.526 -3.033,-0.228 v 56.457 l 3.033,0.034 v -56.263 z m 6.899,0.519 -2.986,-0.225 v 56.015 l 2.986,0.034 V 318.77 z m 0,0 -2.986,-0.225 v 56.015 l 2.986,0.034 V 318.77 z m 6.792,0.509 -2.939,-0.221 v 55.579 l 2.939,0.034 v -55.392 z m 6.687,0.504 -2.895,-0.219 v 55.15 l 2.895,0.033 v -54.964 z"
       id="path3109"
       inkscape:connector-curvature="0"
       style="fill:#2a363b" /></g></svg>