<?xml version="1.0" encoding="utf-8"?>
<!-- Generator: Adobe Illustrator 15.1.0, SVG Export Plug-In . SVG Version: 6.00 Build 0)  -->
<!DOCTYPE svg PUBLIC "-//W3C//DTD SVG 1.1//EN" "http://www.w3.org/Graphics/SVG/1.1/DTD/svg11.dtd">
<svg version="1.1" id="Livello_1" xmlns="http://www.w3.org/2000/svg" xmlns:xlink="http://www.w3.org/1999/xlink" x="0px" y="0px"
	 width="841.89px" height="595.28px" viewBox="0 0 841.89 595.28" enable-background="new 0 0 841.89 595.28" xml:space="preserve">
<polygon fill="#96CAE6" points="249.334,244.667 291.001,216.333 291.001,292.333 250.001,309 "/>
<polygon fill="#96CAE6" points="250.334,317.666 292.001,303.334 290.667,381 248.667,381.666 "/>
<polygon fill="#50A9CE" points="299.334,303 424.001,314.666 424.001,382 298.334,381 "/>
<g>
	<path fill="#4C5356" d="M288.019,308.487v69.13l-36.589,1.08v-58.481L288.019,308.487 M294.053,299.359l-46.748,16.365v68.907
		h46.748V299.359L294.053,299.359z M257.938,321.617l-2.317,0.703v52.814l2.317-0.107V321.617z M263.472,319.936l-2.441,0.741
		v54.208l2.441-0.113V319.936z M269.309,318.162l-2.576,0.783v55.676l2.576-0.12V318.162z M275.475,316.29l-2.723,0.827v57.225
		l2.723-0.127V316.29z M281.998,314.309l-2.882,0.875v58.863l2.882-0.133V314.309z"/>
	<path fill="#4C5356" d="M288.019,221.561v69.13l-36.589,14.47v-58.482L288.019,221.561 M294.053,210.225l-46.748,33.472v68.906
		l46.748-17.106V210.225L294.053,210.225z M257.938,245.697l-2.317,1.552v52.815l2.317-0.955V245.697z M263.472,241.991
		l-2.441,1.636v54.208l2.441-1.007V241.991z M269.309,238.083l-2.576,1.726v55.675l2.576-1.062V238.083z M275.475,233.954
		l-2.723,1.823v57.225l2.723-1.123V233.954z M281.998,229.585l-2.882,1.93v58.863l2.882-1.188V229.585z"/>
</g>
<g>
	<path fill="#2A363B" d="M294.053,210.225l36.742,6.509c1.23,0.218,5.454,0.62,8.762,3.856c3.394,3.463,3.83,7.784,4.049,11.948
		v54.026c0,0.459-0.109,2.971-0.655,4.866c-0.982,3.924-4.163,6.618-7.81,7.324c-0.998,0.141-2.223,0.146-4.568,0.05l-36.52-3.307
		V210.225z M319.584,279.22c3.198-0.469,3.653-1.123,3.993-4.482v-35.968c-0.454-3.351-0.909-4.009-3.993-5.081l-4.028-0.634v45.722
		L319.584,279.22z"/>
	<path fill="#2A363B" d="M349.539,249.575c0.215-12.618,0.966-18.874,4.92-23.205c3.815-4.202,8.854-4.548,19.479-2.658
		c2.138,0.38,4.264,0.758,6.38,1.245c7.577,2.003,10.925,5.317,12.98,8.824c3.211,5.417,3.792,11.244,3.986,22.844v20.218
		c-0.194,7.33-0.194,17.062-4.963,22.66c-0.687,0.805-1.57,1.483-2.455,1.945c-2.863,1.811-7.242,2.729-14.706,2.059
		c-8.21-0.736-13.417-2.33-16.781-4.667c-1.057-0.777-2.964-2.316-4.667-5.201c-3.208-5.326-3.852-10.975-4.174-22.636V249.575z
		 M378.202,245.899c-0.102-1.34-0.202-1.688-0.404-2.383c-0.405-0.948-1.315-2.53-3.655-2.902c-2.452-0.391-3.376,0.909-3.685,1.864
		c-0.205,0.414-0.309,1.177-0.41,2.387v36.224c0,1.003,0.102,1.794,0.102,2.128c0.309,1.149,1.438,3.055,4.096,3.343
		c2.438,0.265,3.451-1.395,3.755-2.355c0.101-0.431,0.202-1.082,0.202-2.187V245.899z"/>
	<path fill="#2A363B" d="M413.419,306.305c-0.374-0.033-2.619-0.344-4.217-1.021c-2.93-1.338-5.402-4.356-6.165-7.974
		c-0.479-1.767-0.479-4.238-0.479-4.668v-51.155c0-0.215,0-2.688,0.383-4.127c0.763-3.628,3.331-6.074,6.73-6.33
		c1.128-0.12,1.69-0.021,3.747,0.344l16.828,2.981v17.588l-6.962-1.089c-2.377,0.154-2.652,0.532-2.836,3.241v31.476
		c0.275,2.769,0.643,3.23,3.109,3.82l6.688,0.745v17.693L413.419,306.305z"/>
	<path fill="#2A363B" d="M459.267,310.457c-1.09-2.312-1.425-3.553-1.51-8.093v-12.688c-0.335-5.982-1.935-7.086-6.686-7.676v27.714
		l-16.269-1.473v-73.081l16.269,2.882l0.086,26.915c1.532,0.222,3.905,0.767,5.255-0.35c1.597-1.377,1.345-4.233,1.345-4.737
		v-13.393c0.252-4.085,0.672-5.32,1.51-6.983l15.589,2.762c-1.29,2.932-1.531,6.15-1.531,13.065c0,1.976,0.08,3.866,0.08,5.841
		c0.08,1.593,0.08,3.173,0.08,4.752c-0.16,4.521-1.213,6.844-2.43,8.063c-1.384,1.497-3.673,2.283-7.794,2.433
		c3.3,1.136,7.956,2.838,9.335,7.468c1.051,3.489,0.485,7.273,0.485,14.488c0,7.016,0.727,10.246,1.855,13.508L459.267,310.457z"/>
	<path fill="#2A363B" d="M487.347,312.999c-2.504-0.519-3.998-0.947-5.894-3.271c-3.1-3.728-3.02-6.86-3.18-9.036v-46.637
		c0.08-3.226,0.239-5.064,1.99-7.215c2.138-2.561,4.029-2.715,7.005-2.383l20.224,3.583v14.851l-14.261-2.252v10.599l14.261,2.059
		v15.135l-14.261-1.779v11.657l14.261,1.567v14.946L487.347,312.999z"/>
	<path fill="#2A363B" d="M530.955,316.947c-1.116-1.662-1.326-3.428-1.466-7.301V297.7c0-0.458,0.07-1.002-0.069-2.03
		c-0.42-3.544-2.667-3.453-3.442-3.548l-1.627-0.2v19.987c0,1.109,0,2.22,0.567,4.491l-14.353-1.299v-66.518l24.27,4.3
		c2.199,0.571,3.84,1.134,5.542,3.336c2.301,3.018,2.638,6.595,2.772,10.498v8.39c0,0.722-0.067,1.343-0.067,1.975
		c-0.135,1.154-0.404,3.643-2.027,5.584c-1.902,2.095-4.158,2.063-6.564,2.013c1.033,0.23,6.903,1.018,8.592,7.741
		c0.404,1.493,0.472,2.223,0.472,4.928v12.444c0.067,2.982,0.135,6.055,1.813,8.459L530.955,316.947z M525.907,277.802
		c0.705,0.008,1.269,0.088,1.971-0.089c1.611-0.597,1.961-2.476,1.961-6.609c0-5.145-2.312-5.511-4.003-5.779l-1.485-0.235v12.491
		L525.907,277.802z"/>
	<g>
		<path fill="#2A363B" d="M431.851,368.012l16.039,0.314V357.83l-5.54-0.179c0,0-5.261,0.347-7.827-1.806
			c-2.672-2.377-2.672-7.362-2.672-10.582v-21.814c0-0.311,0-3.428,0.447-5.366c1.78-7.526,8.481-6.116,9.965-5.886l21.648,1.875
			v15.691l-15.248-1.027v10.996l5.541,0.301c0.676,0.036,4.044-0.285,6.636,1.863c2.822,2.348,3.071,6.557,3.071,10.154v20.788
			c-0.083,1.698-0.166,3.396-0.58,5.092c-1.909,6.701-7.69,6.601-9.212,6.701h-22.269V368.012z"/>
		<path fill="#2A363B" d="M489.526,384.632v-26.522l-6.49-0.219v26.741h-15.271v-70.226l15.271,1.323v26.059l6.49,0.35v-25.846
			l14.396,1.247v67.093H489.526z"/>
		<path fill="#2A363B" d="M515.836,384.632c-2.326-0.282-3.714-0.564-5.476-2.639c-2.878-3.321-2.804-6.347-2.952-8.43v-44.937
			c0.074-3.117,0.223-4.903,1.848-7.134c1.986-2.661,3.742-2.98,6.508-2.929l18.811,1.629v14.33l-13.268-0.894v10.22l13.268,0.715
			v14.604l-13.268-0.455v11.24l13.268,0.258v14.421H515.836z"/>
		<path fill="#2A363B" d="M539.341,384.632v-47.339c-0.067-5.809-0.136-10.983-1.159-16.787l14.727,1.276
			c-0.984,4.016-1.115,7.927-1.182,16.482v31.476c4.709,0.097,12.129-0.102,14.413-1.364l-1.775,16.256H539.341z"/>
		<path fill="#2A363B" d="M569.526,384.632v-45.405c-0.062-5.572-0.125-10.535-1.066-16.098l13.559,1.175
			c-0.907,3.857-1.028,7.612-1.09,15.824v30.211c4.34,0.089,11.182-0.108,13.289-1.322l-1.638,15.615H569.526z"/>
	</g>
	<path fill="#2A363B" d="M420.732,316.601v61.764l-119.538-0.874v-70.371L420.732,316.601 M426.159,310.803l-132.106-11.443v85.272
		h132.106V310.803L426.159,310.803z M311.49,311.957l-3.638-0.273v61.83l3.638,0.042V311.957z M319.753,312.578l-3.575-0.269v61.3
		l3.575,0.041V312.578z M327.876,313.189l-3.515-0.265v60.778l3.515,0.04V313.189z M335.863,313.789l-3.456-0.26v60.266l3.456,0.039
		V313.789z M343.717,314.379l-3.398-0.255v59.762l3.398,0.039V314.379z M343.717,314.379l-3.398-0.255v59.762l3.398,0.039V314.379z
		 M351.44,314.96l-3.343-0.251v59.266l3.343,0.039V314.96z M359.037,315.531l-3.287-0.248v58.779l3.287,0.037V315.531z
		 M366.511,316.093l-3.234-0.243v58.299l3.234,0.037V316.093z M373.864,316.645l-3.183-0.238v57.827l3.183,0.036V316.645z
		 M373.864,316.645l-3.183-0.238v57.827l3.183,0.036V316.645z M381.1,317.189l-3.132-0.236v57.363l3.132,0.036V317.189z
		 M388.221,317.725l-3.082-0.232v56.906l3.082,0.036V317.725z M395.229,318.251l-3.033-0.228v56.457l3.033,0.034V318.251z
		 M402.128,318.77l-2.986-0.225v56.015l2.986,0.034V318.77z M402.128,318.77l-2.986-0.225v56.015l2.986,0.034V318.77z
		 M408.92,319.279l-2.939-0.221v55.579l2.939,0.034V319.279z M415.607,319.783l-2.895-0.219v55.15l2.895,0.033V319.783z"/>
</g>
</svg>
